<svg xmlns="http://www.w3.org/2000/svg" width="1182.315" height="329.502" viewBox="0 0 1182.315 329.502">
  <g transform="translate(362.373,229.219)">
    <rect x="-284" y="-158" rx="35" ry="35" width="160" height="160" fill="#0B0D10"/>
    <rect x="-249" y="-86.5" width="55" height="15" rx="7.5" ry="7.5" fill="#ECEAE4"/>
    <circle cx="-174" cy="-78" r="8.75" fill="#FF4D4D"/>
    <g transform="translate(-70,0)">
    <path d="M54.31640625 2.021484375C74.970703125 2.021484375 90.966796875 -9.140625 95.712890625 -27.685546875L77.431640625 -32.080078125C74.794921875 -21.4453125 66.62109375 -14.326171875 54.404296875 -14.326171875C36.650390625 -14.326171875 28.125 -29.8828125 28.125 -48.603515625C28.125 -67.587890625 36.650390625 -83.14453125 54.404296875 -83.14453125C66.4453125 -83.14453125 74.443359375 -76.201171875 77.080078125 -66.09375L95.44921875 -70.48828125C90.615234375 -88.681640625 74.70703125 -99.4921875 54.31640625 -99.4921875C26.630859375 -99.4921875 8.4375 -79.189453125 8.4375 -48.603515625C8.4375 -18.28125 26.630859375 2.021484375 54.31640625 2.021484375Z" fill="#0B0D10"/>
    <path d="M148.580859375 1.23046875C162.116015625 1.23046875 172.662890625 -4.833984375 178.815234375 -19.072265625L178.903125 0.0H197.448046875V-98.26171875H178.02421875V-40.078125C178.02421875 -24.521484375 168.268359375 -15.64453125 155.17265625 -15.64453125C142.340625 -15.64453125 134.43046875 -24.08203125 134.43046875 -38.232421875V-98.26171875H115.09453125V-35.859375C115.09453125 -11.6015625 128.541796875 1.23046875 148.580859375 1.23046875Z" fill="#0B0D10"/>
    <path d="M263.9390625 2.021484375C284.944921875 2.021484375 299.97421875 -8.26171875 304.632421875 -23.5546875L286.4390625 -27.861328125C283.011328125 -18.720703125 274.925390625 -13.974609375 264.11484375 -13.974609375C248.03085937499998 -13.974609375 237.13242187499998 -24.2578125 236.42929687499998 -43.2421875H306.1265625V-50.09765625C306.1265625 -85.517578125 284.68125 -99.4921875 262.269140625 -99.4921875C234.75937499999998 -99.4921875 217.00546874999998 -78.662109375 217.00546874999998 -48.427734375C217.00546874999998 -17.9296875 234.93515624999998 2.021484375 263.9390625 2.021484375ZM236.51718749999998 -57.65625C237.57187499999998 -71.806640625 246.88828124999998 -83.49609375 262.35703125 -83.49609375C277.210546875 -83.49609375 285.56015625 -73.125 286.96640625 -57.65625Z" fill="#0B0D10"/>
    <path d="M362.07070312499997 1.93359375C379.82460937499997 1.93359375 386.94374999999997 -9.140625 390.37148437499997 -15.380859375H391.95351562499997V0.0H410.76210937499997V-130.95703125H391.42617187499997V-82.265625H390.37148437499997C387.03164062499997 -88.330078125 380.35195312499997 -99.4921875 362.07070312499997 -99.4921875C338.42812499999997 -99.4921875 320.93789062499997 -80.859375 320.93789062499997 -48.8671875C320.93789062499997 -17.138671875 338.16445312499997 1.93359375 362.07070312499997 1.93359375ZM366.28945312499997 -14.501953125C349.50234374999997 -14.501953125 340.71328124999997 -29.53125 340.71328124999997 -49.04296875C340.71328124999997 -68.37890625 349.23867187499997 -83.056640625 366.28945312499997 -83.056640625C382.90078124999997 -83.056640625 391.77773437499997 -69.43359375 391.77773437499997 -49.04296875C391.77773437499997 -28.564453125 382.72499999999997 -14.501953125 366.28945312499997 -14.501953125Z" fill="#0B0D10"/>
    <path d="M477.34101562499995 2.021484375C498.34687499999995 2.021484375 513.376171875 -8.26171875 518.034375 -23.5546875L499.84101562499995 -27.861328125C496.41328124999995 -18.720703125 488.32734374999995 -13.974609375 477.51679687499995 -13.974609375C461.43281249999995 -13.974609375 450.53437499999995 -24.2578125 449.83124999999995 -43.2421875H519.528515625V-50.09765625C519.528515625 -85.517578125 498.08320312499995 -99.4921875 475.67109374999995 -99.4921875C448.16132812499995 -99.4921875 430.40742187499995 -78.662109375 430.40742187499995 -48.427734375C430.40742187499995 -17.9296875 448.33710937499995 2.021484375 477.34101562499995 2.021484375ZM449.91914062499995 -57.65625C450.97382812499995 -71.806640625 460.29023437499995 -83.49609375 475.75898437499995 -83.49609375C490.61249999999995 -83.49609375 498.96210937499995 -73.125 500.36835937499995 -57.65625Z" fill="#0B0D10"/>
    <path d="M574.154296875 2.021484375C598.1484375 2.021484375 614.671875 -10.634765625 614.671875 -28.564453125C614.671875 -42.1875 606.05859375 -50.9765625 587.865234375 -55.107421875L572.044921875 -58.623046875C561.234375 -61.083984375 556.83984375 -64.951171875 556.83984375 -71.455078125C556.83984375 -78.837890625 564.92578125 -84.19921875 575.560546875 -84.19921875C587.162109375 -84.19921875 592.69921875 -78.046875 595.248046875 -71.19140625L612.5625 -74.970703125C608.34375 -89.560546875 596.654296875 -99.4921875 575.384765625 -99.4921875C553.1484375 -99.4921875 537.328125 -87.802734375 537.328125 -70.224609375C537.328125 -56.162109375 546.1171875 -47.197265625 564.3984375 -43.06640625L580.921875 -39.287109375C590.23828125 -37.177734375 594.720703125 -33.134765625 594.720703125 -26.89453125C594.720703125 -19.599609375 586.810546875 -13.623046875 574.330078125 -13.623046875C562.904296875 -13.623046875 555.43359375 -18.369140625 552.708984375 -28.65234375L534.515625 -24.873046875C538.03125 -7.470703125 552.796875 2.021484375 574.154296875 2.021484375Z" fill="#0B0D10"/>
    <path d="M634.053515625 0.0H653.389453125V-34.62890625L662.79375 -44.033203125L695.928515625 0.0H719.834765625L677.559375 -55.8984375L717.11015625 -98.26171875H693.90703125L655.147265625 -56.77734375H653.389453125V-130.95703125H634.053515625Z" fill="#0B0D10"/>
    </g>
  </g>
</svg>
